<?xml version="1.0" encoding="utf-8"?>
<!-- Generator: Adobe Illustrator 19.0.0, SVG Export Plug-In . SVG Version: 6.00 Build 0)  -->
<svg version="1.1" id="Layer_1" xmlns="http://www.w3.org/2000/svg" xmlns:xlink="http://www.w3.org/1999/xlink" x="0px" y="0px"
	 viewBox="-79 124.7 351.2 264.3" style="enable-background:new -79 124.7 351.2 264.3;" xml:space="preserve">
<style type="text/css">
	.st0{fill:#3F8BB1;}
	.st1{fill:#FFFFFF;}
</style>
<g id="XMLID_2_">
	<path id="XMLID_34_" class="st0" d="M6.4,193.2c-2.1-2-4.3-3.9-6.4-6c-13.1-13-26.3-26-39.2-39.2c-1.8-1.9-3.4-4.9-3.4-7.4
		c0-5.4,6.6-8.3,11.2-5.4c1.2,0.8,2.3,1.9,3.4,3c78.8,78.7,157.5,157.5,236.2,236.3c1.8,1.8,3.3,4.5,3.8,6.9c0.6,3-1.4,5.4-4.3,6.8
		s-5.7,0.9-8-1.3c-3.9-3.7-7.7-7.5-11.5-11.3c-5.7-5.6-11.4-11.2-16.9-17c-1.7-1.8-3-1.9-5.1-0.9c-22.7,10.7-46.6,16.3-71.7,16.1
		c-26-0.2-50.3-7.4-73.4-18.9c-38.3-19-70.1-46.3-97.5-78.9c-3.6-4.2-3.4-7.3,0.3-11.7c22.9-27.2,49.4-50.2,79.7-68.7
		c0.7-0.5,1.5-0.9,2.2-1.4C5.8,194.1,5.9,193.8,6.4,193.2z M116.4,305.4c-18.3-18.4-36.6-36.7-54.8-55c-9.5,14.4-6.8,35.7,6.5,48.8
		C81.3,312.1,103,314.7,116.4,305.4z"/>
	<path id="XMLID_33_" class="st0" d="M184.8,192.5c32.6,19.3,60.3,42.9,84.1,71.2c4.4,5.3,4.4,7.9,0.1,13.1
		c-17.9,21.4-38.2,40.2-60.9,56.4c-0.8,0.6-1.6,1.2-2.5,1.7c-3.7,2.4-7.8,1.7-10.3-1.6c-2.5-3.3-2-7.9,1.5-10.6
		c6.9-5.4,14-10.5,20.7-16.1c13.3-11,25.6-23,37.1-36.5c-2.7-2.9-5.2-5.8-7.8-8.6c-25.4-27-54.3-49.4-87.9-65.2
		c-24.2-11.4-49.9-16.7-76.8-13.7c-8.9,1-17.6,3.4-26.4,5.3c-6,1.3-10.8-3-9.6-8.8c0.7-3.2,2.7-5.1,5.8-5.7c10.5-2.1,21-4.1,31.6-6
		c1.7-0.3,3.4-0.4,5.4-0.6c0-10.1,0-20,0-29.8c0-1.5,0-3,0-4.5c0.2-4.6,3.2-7.8,7.4-7.8c4.1,0,7.5,3.1,7.5,7.7
		c0.2,7.6,0.1,15.2,0.1,22.9c0,3.9,0,7.7,0,11.7c7.4,1.1,14.7,2,21.9,3.3c14.3,2.5,28.1,7,41.1,13.4c3.1,1.5,4.8,1,7-1.3
		c4.5-4.9,9.3-9.5,14-14.1c3.8-3.7,8.1-4,11.3-1c3.3,3.2,3.1,7.7-0.7,11.5C194,183.5,189.5,187.9,184.8,192.5z"/>
	<path id="XMLID_32_" class="st0" d="M98,214.9c29.9,0.5,54.6,26.1,54,56.2c-0.1,5-3.2,8.3-7.7,8.3c-4.3-0.1-7.2-3.3-7.3-8.2
		c-0.4-21.5-13.9-37.4-34.8-40.9c-2-0.3-4-0.3-6-0.4c-5.2-0.2-8.8-3.4-8.6-7.9c0.2-4.4,3.5-7.1,8.8-7.1
		C97,214.9,97.5,214.9,98,214.9z"/>
	<path id="XMLID_31_" class="st1" d="M116.4,305.4c-13.4,9.3-35.1,6.7-48.3-6.3c-13.3-13-16-34.3-6.5-48.8
		C79.8,268.7,98.1,287,116.4,305.4z"/>
</g>
</svg>
