<?xml version="1.0" encoding="utf-8"?>
<!-- Generator: Adobe Illustrator 19.0.0, SVG Export Plug-In . SVG Version: 6.00 Build 0)  -->
<svg version="1.1" id="Layer_1" xmlns="http://www.w3.org/2000/svg" xmlns:xlink="http://www.w3.org/1999/xlink" x="0px" y="0px"
	 viewBox="0 0 512 512" style="enable-background:new 0 0 512 512;" xml:space="preserve">
<style type="text/css">
	.st0{fill-opacity:1.000000e-002;}
	.st1{fill:#3F8BB1;}
</style>
<path class="st0" d="M0,0h512v512H0V0z"/>
<g transform="translate(0,0)">
	<path class="st1" d="M253.1,18.6c-131.5,0-238.4,106.8-238.4,238.3s106.8,238.3,238.4,238.3c131.5,0,238.3-106.8,238.3-238.3
		C491.5,125.4,384.7,18.6,253.1,18.6L253.1,18.6z M229.2,70.7c40.5,0,78,12.9,108.5,34.8c-5.7-0.6-11.4-1-17.1-1
		c-84.2,0-152.4,68.3-152.4,152.4c0,84.2,68.2,152.4,152.4,152.4c5.8,0,11.5-0.3,17.1-0.9c-30.5,21.9-68,34.8-108.5,34.8
		c-103,0-186.3-83.3-186.3-186.3C42.9,153.9,126.2,70.7,229.2,70.7L229.2,70.7z"/>
</g>
</svg>
