<?xml version="1.0" encoding="utf-8"?>
<!-- Generator: Adobe Illustrator 19.0.0, SVG Export Plug-In . SVG Version: 6.00 Build 0)  -->
<svg version="1.1" id="Layer_1" xmlns="http://www.w3.org/2000/svg" xmlns:xlink="http://www.w3.org/1999/xlink" x="0px" y="0px"
	 viewBox="0 0 512 512" style="enable-background:new 0 0 512 512;" xml:space="preserve">
<style type="text/css">
	.st0{fill-opacity:1.000000e-002;}
	.st1{fill:#3F8BB1;}
</style>
<path class="st0" d="M0,0h512v512H0V0z"/>
<g transform="translate(0,0)">
	<path class="st1" d="M320.1,19.7c-72.3,14.6-19.2,71.7-74.3,108.8c4.8-0.5,9.7-0.7,14.7-0.6c16.3,0.3,32.8,3.7,48.6,10.7
		c4.9,2.2,9.7,4.6,14.3,7.4C335.3,98.6,286.1,49.7,320.1,19.7L320.1,19.7z M136.8,44.5c-40.8,61.4,37,64.3,24.4,129.4
		c17.4-21.3,41.2-35.9,67.2-42.3C203.3,89.4,133.9,89.6,136.8,44.5L136.8,44.5z M434.1,119.9c-32.5,0.9-45.5,46.3-96.6,36.2
		c21.4,17.4,36,41.3,42.5,67.3c42.3-24.9,42.1-94.5,87.3-91.6C453.8,122.9,443.2,119.6,434.1,119.9L434.1,119.9z M256.1,146.5
		c-23.7,0.5-46.5,8.8-64.9,23.6L170,193.2c-3.6,5.4-6.8,11-9.4,16.9c-8.7,19.7-11,40.6-7.8,60.3l10.8,32.4
		c10.8,20.6,28.4,37.9,51.4,48c3,1.4,6.2,2.6,9.3,3.6l33.6,5.5c27.3,0.1,53.7-10.4,73.6-29.2l19.2-24.4c1.8-3.2,3.5-6.5,5-9.9
		c9.7-22,11.5-45.5,6.4-67.2l-9.9-26.5c-10.8-20.2-28.2-37.1-50.9-47.1c-1.4-0.6-2.7-1.2-4.1-1.7l-35.8-7.5c-0.5,0-1,0-1.5,0
		C258.7,146.5,257.4,146.5,256.1,146.5L256.1,146.5z M133.4,186.5c-41.7,0.7-82.5,34.8-108.7,5.1c14.6,72.2,71.7,19.3,108.8,74.3
		c-2.2-21,0.9-42.8,10.1-63.4c2.2-4.8,4.6-9.6,7.3-14.1C145.1,187,139.2,186.4,133.4,186.5L133.4,186.5z M382.9,240.5
		c2.3,21.7-1.2,43.7-10,63.6l-0.2,0.4c-2.1,4.7-4.5,9.3-7.2,13.8c47.5,12.2,96.5-37.1,126.5-3.2C477.3,242.7,420,296.1,382.9,240.5
		L382.9,240.5z M136.5,283.4c-42.1,25-41.9,94.4-87.1,91.5c61.4,40.8,64.3-37.1,129.6-24.3C157.7,333.2,143,309.4,136.5,283.4
		L136.5,283.4z M355.6,332.3c-17.4,21.5-41.2,36.2-67.3,42.7c24.9,42.3,94.5,42,91.7,87.2C420.8,400.7,342.5,397.9,355.6,332.3
		L355.6,332.3z M193.4,360.7c-12,47.5,37.1,96.3,3.2,126.3c72.3-14.6,19.2-71.8,74.5-108.9c-21,2.2-42.9-0.9-63.6-10.1
		C202.6,365.9,197.9,363.4,193.4,360.7L193.4,360.7z"/>
</g>
</svg>
